<?xml version="1.0" encoding="UTF-8" standalone="no"?>
<svg
   height="512px"
   style="enable-background:new 0 0 512 512;"
   version="1.1"
   viewBox="0 0 512 512"
   width="512px"
   xml:space="preserve"
   id="svg1"
   sodipodi:docname="kaggle.svg"
   inkscape:version="1.4 (86a8ad7, 2024-10-11)"
   xmlns:inkscape="http://www.inkscape.org/namespaces/inkscape"
   xmlns:sodipodi="http://sodipodi.sourceforge.net/DTD/sodipodi-0.dtd"
   xmlns="http://www.w3.org/2000/svg"
   xmlns:svg="http://www.w3.org/2000/svg"><defs
     id="defs1" /><sodipodi:namedview
     id="namedview1"
     pagecolor="#ffffff"
     bordercolor="#000000"
     borderopacity="0.25"
     inkscape:showpageshadow="2"
     inkscape:pageopacity="0.0"
     inkscape:pagecheckerboard="0"
     inkscape:deskcolor="#d1d1d1"
     inkscape:zoom="1.5097656"
     inkscape:cx="255.33765"
     inkscape:cy="255.33765"
     inkscape:window-width="1920"
     inkscape:window-height="991"
     inkscape:window-x="-9"
     inkscape:window-y="-9"
     inkscape:window-maximized="1"
     inkscape:current-layer="svg1" /><g
     id="_x31_89-kaggle"><g
       id="g1"><path
         d="M385.708,476.478L254.742,313.713l125.578-121.534c2.334-2.426,1.526-9.433-4.761-9.433h-62.16    c-3.145,0-6.288,1.618-9.433,4.761L185.128,307.604V32.738c0-4.491-2.247-6.737-6.738-6.737h-46.618    c-4.492,0-6.737,2.246-6.737,6.737v446.433c0,4.491,2.246,6.738,6.737,6.738h46.618c4.491,0,6.738-2.247,6.738-6.738v-97.91    l27.666-26.317l99.257,126.294c2.695,3.145,5.839,4.762,9.432,4.762h60.095c3.143,0,4.939-0.899,5.389-2.696L385.708,476.478z"
         style="fill:#475569;fill-opacity:1"
         id="path1" /></g></g><g
     id="Layer_1" /></svg>
